<?xml version="1.0" encoding="utf-8"?>
<!-- Generator: Adobe Illustrator 24.1.0, SVG Export Plug-In . SVG Version: 6.00 Build 0)  -->
<svg version="1.1" id="圖層_1" xmlns="http://www.w3.org/2000/svg" xmlns:xlink="http://www.w3.org/1999/xlink" x="0px" y="0px"
	 viewBox="0 0 290 198.6" style="enable-background:new 0 0 290 198.6;" xml:space="preserve">
<style type="text/css">
	.st0{fill:#2C2B3C;}
</style>
<path class="st0" d="M46.5,44.8c-1.1,1.1-2.1,2-3.2,2.6c-0.4,0.3-0.9,0.6-1.3,0.9c-0.4,0.3-0.9,0.5-1.4,0.8c-2,1.1-4.1,1.9-6.3,2.3
	c-2.2,0.5-4.4,0.7-6.8,0.7c-4.6,0-8.6-0.7-11.9-2.2c-3.3-1.5-6-3.4-8.2-5.8c-2.1-2.4-3.7-5.1-4.8-8.2c-1-3.1-1.6-6.2-1.6-9.5
	c0-3.2,0.5-6.4,1.6-9.6c1.1-3.2,2.7-6,4.9-8.4c2.2-2.4,4.9-4.4,8.2-5.9c3.3-1.5,7.2-2.3,11.7-2.3c4.2,0,8.1,1,11.8,2.9
	c1.5,0.8,2.9,1.7,4,2.6c0.4,0.3,0.9,0.6,1.2,1c0.4,0.3,0.8,0.7,1.2,1.1l-3.3,3.2l-0.1,0.1c-0.7,0.6-1.4,1-2.2,1.1
	c-0.4,0.1-0.7,0.1-1,0.1c-0.4,0-0.9-0.1-1.2-0.2c-0.4-0.1-0.8-0.3-1.1-0.5c0,0-0.1-0.1-0.1-0.1c-1.4-0.8-2.9-1.5-4.5-1.9
	c-1.6-0.4-3.1-0.6-4.7-0.6c-3,0-5.6,0.5-7.8,1.5c-2.2,1-3.9,2.4-5.3,4c-1.4,1.6-2.4,3.5-3,5.6c-0.6,2.1-1,4.1-1,6.2
	c0,2.1,0.3,4.1,1,6.1c0.6,2,1.6,3.8,3,5.4c1.4,1.6,3.1,2.9,5.3,3.9c2.2,1,4.8,1.5,7.8,1.5c1.6,0,3.3-0.2,5-0.7
	c1.7-0.5,3.3-1.2,4.7-2.1c0.8-0.5,1.6-0.7,2.4-0.7c1.3,0,2.4,0.5,3.3,1.4l0.1,0.1L46.5,44.8z"/>
<path class="st0" d="M81.2,16.1h3.4v35.1h-3.4c-1.2,0-2.3-0.4-3.1-1.3c-0.9-0.9-1.3-1.9-1.3-3.1V46c-0.5,1-1.2,1.9-2.1,2.7
	c-0.9,0.8-1.8,1.4-2.9,1.9c-1.1,0.5-2.1,0.9-3.3,1.2c-1.1,0.3-2.2,0.4-3.2,0.4c-2.6,0-5-0.4-7.2-1.2c-2.2-0.8-4.1-1.9-5.7-3.5
	c-1.6-1.5-2.9-3.5-3.8-5.8c-0.9-2.3-1.4-5-1.4-8.1c0-3,0.5-5.7,1.4-8c0.9-2.3,2.2-4.2,3.9-5.8c1.7-1.5,3.6-2.7,5.8-3.4
	c2.2-0.8,4.6-1.1,7.2-1.1c2.3,0,4.5,0.5,6.6,1.5c2.1,1,3.6,2.4,4.5,4.1v-0.4c0-1.2,0.4-2.3,1.3-3.1C78.9,16.5,80,16.1,81.2,16.1z
	 M55.6,33.6c0,1.7,0.3,3.2,0.8,4.5c0.5,1.3,1.3,2.4,2.2,3.3c1,0.9,2.1,1.6,3.3,2.1c1.2,0.5,2.6,0.7,4.1,0.7c2.2,0,4.1-0.5,5.7-1.6
	c1.5-1.1,2.7-2.4,3.4-3.9c0.7-1.6,1.1-3.3,1.1-5.1c0-1.9-0.4-3.6-1.1-5.1c-0.8-1.6-1.9-2.9-3.4-3.9C70.1,23.5,68.2,23,66,23
	c-1.5,0-2.8,0.2-4.1,0.7c-1.2,0.5-2.3,1.2-3.3,2.1c-1,0.9-1.7,2.1-2.2,3.4C55.9,30.5,55.6,32,55.6,33.6z"/>
<path class="st0" d="M98.2,51.2V24.2h-6.5V21c0-1.2,0.4-2.3,1.3-3.1c0.9-0.9,1.9-1.3,3.1-1.3h2.1v-2.3c0-2.3,0.4-4.4,1.1-6.1
	c0.7-1.7,1.7-3.1,2.9-4.3c1.2-1.1,2.6-2,4.3-2.5c1.6-0.5,3.3-0.8,5.1-0.8c3.2,0,6.2,1,9.1,2.9l-1.3,2.6c-0.4,1-1.1,1.7-2.1,2.1
	c-1,0.4-2,0.5-3,0.2c-0.6-0.2-1.3-0.3-2.1-0.3c-1.5,0-2.8,0.5-3.8,1.5c-1,1-1.5,2.6-1.5,4.7v2.3h10.3v3.2c0,1.2-0.4,2.3-1.3,3.1
	c-0.9,0.9-1.9,1.3-3.1,1.3h-5.9v22.5c0,1.2-0.4,2.3-1.2,3.1c-0.8,0.9-1.9,1.3-3.1,1.3H98.2z"/>
<path class="st0" d="M129.6,51.2V24.2H123V21c0-1.2,0.4-2.3,1.3-3.1c0.9-0.9,1.9-1.3,3.1-1.3h2.1v-2.3c0-2.3,0.4-4.4,1.1-6.1
	c0.7-1.7,1.7-3.1,2.9-4.3c1.2-1.1,2.6-2,4.3-2.5c1.6-0.5,3.3-0.8,5.1-0.8c3.2,0,6.2,1,9.1,2.9l-1.3,2.6c-0.4,1-1.1,1.7-2.1,2.1
	c-1,0.4-2,0.5-3,0.2C145,8.1,144.3,8,143.5,8c-1.5,0-2.8,0.5-3.8,1.5c-1,1-1.5,2.6-1.5,4.7v2.3h10.3v3.2c0,1.2-0.4,2.3-1.3,3.1
	c-0.9,0.9-1.9,1.3-3.1,1.3h-5.9v22.5c0,1.2-0.4,2.3-1.2,3.1c-0.8,0.9-1.9,1.3-3.1,1.3H129.6z"/>
<path class="st0" d="M161.1,35.8c0.3,2.3,1.3,4.1,3,5.5c1.7,1.4,4.2,2.2,7.3,2.2c2.3,0,4.6-0.6,6.9-1.7c0.8-0.4,1.7-0.5,2.6-0.4
	c0.9,0.1,1.7,0.6,2.4,1.2l3.1,3c-1.9,2-4.2,3.5-7,4.4c-2.7,1-5.5,1.4-8.2,1.4c-3.1,0-5.8-0.5-8.3-1.4c-2.4-0.9-4.5-2.2-6.1-3.9
	c-1.6-1.7-2.9-3.7-3.7-6.1c-0.9-2.3-1.3-5-1.3-7.9c0-2.7,0.4-5.3,1.3-7.6c0.9-2.3,2.1-4.3,3.7-5.9c1.6-1.7,3.6-3,5.9-3.9
	c2.3-0.9,4.9-1.4,7.8-1.4c3,0,5.7,0.5,8,1.4c2.4,0.9,4.3,2.3,5.9,4.1c1.6,1.8,2.7,4.1,3.4,6.9c0.7,2.8,0.9,6,0.6,9.7H161.1z
	 M179.9,28.5c-0.2-2.3-1.2-4.1-2.8-5.2c-1.6-1.1-3.7-1.7-6.2-1.7c-2.4,0-4.4,0.6-6.1,1.7c-1.7,1.1-2.9,2.9-3.6,5.2H179.9z"/>
<path class="st0" d="M204.1,6.3c0,1.7-0.5,3-1.6,3.8c-1.1,0.8-2.2,1.2-3.5,1.2c-1.3,0-2.5-0.4-3.5-1.2c-1.1-0.8-1.6-2.1-1.6-3.8
	c0-1.7,0.5-3,1.6-3.9c1.1-0.9,2.2-1.3,3.5-1.3c1.3,0,2.5,0.4,3.5,1.3C203.6,3.3,204.1,4.6,204.1,6.3z M194.7,16v30.8
	c0,1.2,0.4,2.3,1.3,3.1c0.9,0.9,1.9,1.3,3.1,1.3h4.3V20.4c0-1.2-0.4-2.3-1.3-3.1c-0.9-0.9-1.9-1.3-3.1-1.3H194.7z"/>
<path class="st0" d="M242.1,51.2c-1.3,0-2.3-0.4-3.2-1.3c-0.8-0.9-1.2-1.9-1.2-3.1V32.8c0-2.7-0.7-4.9-2.2-6.7
	c-1.4-1.8-3.6-2.7-6.3-2.7c-1.3,0-2.5,0.3-3.6,0.8c-1.1,0.5-2,1.2-2.8,2.1c-0.8,0.9-1.4,2-1.8,3.2c-0.4,1.2-0.7,2.5-0.7,3.8v13.5
	c0,1.2-0.4,2.3-1.3,3.1c-0.9,0.9-1.9,1.3-3.1,1.3h-4.2V16h3.9c1.2,0,2.3,0.4,3.1,1.3c0.9,0.9,1.3,1.9,1.3,3.1v0.4
	c1.8-1.7,3.6-3,5.5-3.9c1.8-0.9,3.9-1.4,6.1-1.4c2.1,0,4,0.4,5.8,1.1c1.8,0.8,3.4,1.9,4.7,3.3c1.3,1.5,2.4,3.3,3.2,5.4
	c0.8,2.2,1.2,4.6,1.2,7.3v18.4H242.1z"/>
<path class="st0" d="M260.4,35.8c0.3,2.3,1.3,4.1,3,5.5c1.7,1.4,4.2,2.2,7.3,2.2c2.3,0,4.6-0.6,6.9-1.7c0.8-0.4,1.7-0.5,2.6-0.4
	c0.9,0.1,1.7,0.6,2.4,1.2l3.1,3c-1.9,2-4.2,3.5-7,4.4c-2.7,1-5.5,1.4-8.2,1.4c-3.1,0-5.8-0.5-8.3-1.4c-2.4-0.9-4.5-2.2-6.1-3.9
	c-1.6-1.7-2.9-3.7-3.7-6.1c-0.9-2.3-1.3-5-1.3-7.9c0-2.7,0.4-5.3,1.3-7.6c0.9-2.3,2.1-4.3,3.7-5.9c1.6-1.7,3.6-3,5.9-3.9
	c2.3-0.9,4.9-1.4,7.8-1.4c3,0,5.7,0.5,8,1.4c2.4,0.9,4.3,2.3,5.9,4.1c1.6,1.8,2.7,4.1,3.4,6.9c0.7,2.8,0.9,6,0.6,9.7H260.4z
	 M279.2,28.5c-0.2-2.3-1.2-4.1-2.8-5.2c-1.6-1.1-3.7-1.7-6.2-1.7c-2.4,0-4.4,0.6-6.1,1.7c-1.7,1.1-2.9,2.9-3.6,5.2H279.2z"/>
<path class="st0" d="M52.4,124.5h-5.2c-0.8,0-1.6-0.3-2.2-0.8c-0.7-0.5-1.1-1.2-1.4-2L35,94.8l-8.6,26.9c-0.3,0.8-0.8,1.5-1.5,2
	c-0.7,0.5-1.4,0.8-2.3,0.8h-5L1.2,74.8h6.6c0.9,0,1.7,0.3,2.4,0.8c0.7,0.5,1.2,1.3,1.4,2.2l9.7,28.7l10.9-31.7h5.6l11.2,31.7
	l9.4-28.7c0.2-0.9,0.7-1.6,1.4-2.2c0.7-0.6,1.5-0.8,2.4-0.8h6.6L52.4,124.5z"/>
<path class="st0" d="M84.1,79.6c0,1.7-0.5,3-1.6,3.8c-1.1,0.8-2.2,1.2-3.5,1.2c-1.3,0-2.5-0.4-3.5-1.2c-1.1-0.8-1.6-2.1-1.6-3.8
	c0-1.7,0.5-3,1.6-3.9c1.1-0.9,2.2-1.3,3.5-1.3c1.3,0,2.5,0.4,3.5,1.3C83.6,76.6,84.1,77.9,84.1,79.6z M74.7,89.3v30.8
	c0,1.2,0.4,2.3,1.3,3.1c0.9,0.9,1.9,1.3,3.1,1.3h4.3V93.7c0-1.2-0.4-2.3-1.3-3.1c-0.9-0.9-1.9-1.3-3.1-1.3H74.7z"/>
<path class="st0" d="M106.4,83.7v6.8h9.7v3.7c0,1-0.4,1.9-1.1,2.6c-0.7,0.7-1.6,1.1-2.6,1.1h-6.1v14.3c0,1.7,0.4,3,1.3,3.8
	c0.9,0.8,1.9,1.2,3.3,1.2c0.2,0,0.5,0,0.7,0c0.2,0,0.4,0,0.7-0.1c0.9-0.1,1.7,0,2.5,0.5c0.8,0.5,1.3,1.1,1.6,2l1.3,3.9
	c-1.3,0.5-2.5,0.9-3.6,1.1s-2.3,0.4-3.6,0.4c-3.8,0.1-6.9-0.9-9.2-3c-2.3-2.2-3.4-5.4-3.4-9.8V97.8h-6.5v-3.7c0-1,0.4-1.9,1.1-2.6
	c0.7-0.7,1.6-1.1,2.6-1.1h2.9V80h4.6c1.1-0.1,2.1,0.2,2.9,0.9C106,81.6,106.4,82.5,106.4,83.7z"/>
<path class="st0" d="M133.7,79.2v15c1.6-2.1,3.3-3.4,5.1-4.2c1.9-0.7,3.8-1.1,5.8-1.1c2.5,0,4.6,0.4,6.5,1.2c1.8,0.8,3.3,2,4.5,3.4
	c1.2,1.5,2,3.3,2.6,5.4c0.6,2.1,0.8,4.5,0.8,7v18.5h-4.3c-1.2,0-2.3-0.4-3.1-1.3c-0.9-0.9-1.3-1.9-1.3-3.1v-14
	c0-3.2-0.8-5.5-2.3-6.9c-1.5-1.4-3.4-2.2-5.7-2.2c-1.3,0-2.4,0.3-3.5,0.8c-1.1,0.5-2,1.2-2.8,2.1c-0.8,0.9-1.4,1.9-1.8,3
	c-0.4,1.2-0.6,2.4-0.6,3.7v13.5c0,1.2-0.4,2.3-1.3,3.1c-0.9,0.9-1.9,1.3-3.1,1.3H125V74.8h4.3c1.2,0,2.3,0.4,3.1,1.2
	C133.3,76.9,133.7,77.9,133.7,79.2z"/>
<path class="st0" d="M51.2,161.9l-14.9,20.8c-0.3,0.5-0.8,0.7-1.5,0.7c-0.6,0-1.2-0.2-1.5-0.7l-14.6-20.9v31.8
	c0,1.2-0.4,2.3-1.3,3.1c-0.8,0.9-1.9,1.3-3.1,1.3H9.3v-49.7H19c0.8,0,1.4,0.3,1.8,0.9l14.2,20.5l14.2-20.5c0.3-0.6,0.9-0.9,1.8-0.9
	h9.6V198h-4.9c-1.2,0-2.2-0.4-3.1-1.3c-0.8-0.9-1.3-1.9-1.3-3.1V161.9z"/>
<path class="st0" d="M78.1,153c0,1.7-0.5,3-1.6,3.8c-1.1,0.8-2.2,1.2-3.5,1.2c-1.3,0-2.5-0.4-3.5-1.2c-1.1-0.8-1.6-2.1-1.6-3.8
	c0-1.7,0.5-3,1.6-3.9c1.1-0.9,2.2-1.3,3.5-1.3c1.3,0,2.5,0.4,3.5,1.3C77.6,150,78.1,151.3,78.1,153z M68.7,162.7v30.8
	c0,1.2,0.4,2.3,1.3,3.1c0.9,0.9,1.9,1.3,3.1,1.3h4.3v-30.8c0-1.2-0.4-2.3-1.3-3.1c-0.9-0.9-1.9-1.3-3.1-1.3H68.7z"/>
<path class="st0" d="M95.8,152.6v24.3l10.5-12.5c0.8-1.1,2-1.6,3.4-1.6h8.8l-14.7,16.5l16.9,18.6h-9c-1.3,0-2.4-0.5-3.4-1.5
	L95.8,182v11.4c0,1.2-0.4,2.3-1.3,3.1c-0.9,0.9-1.9,1.3-3.1,1.3h-4.3v-49.7h4.3c1.2,0,2.3,0.4,3.1,1.2
	C95.3,150.3,95.8,151.4,95.8,152.6z"/>
<path class="st0" d="M131.4,182.6c0.3,2.3,1.3,4.1,3,5.5c1.7,1.4,4.2,2.2,7.3,2.2c2.3,0,4.6-0.6,6.9-1.7c0.8-0.4,1.7-0.5,2.6-0.4
	c0.9,0.1,1.7,0.6,2.4,1.2l3.1,3c-1.9,2-4.2,3.5-7,4.4c-2.7,1-5.5,1.4-8.2,1.4c-3.1,0-5.8-0.5-8.3-1.4c-2.4-0.9-4.5-2.2-6.1-3.9
	c-1.6-1.7-2.9-3.7-3.7-6.1c-0.9-2.3-1.3-5-1.3-7.9c0-2.7,0.4-5.3,1.3-7.6c0.9-2.3,2.1-4.3,3.7-5.9c1.6-1.7,3.6-3,5.9-3.9
	c2.3-0.9,4.9-1.4,7.8-1.4c3,0,5.7,0.5,8,1.4c2.4,0.9,4.3,2.3,5.9,4.1c1.6,1.8,2.7,4.1,3.4,6.9c0.7,2.8,0.9,6,0.6,9.7H131.4z
	 M150.2,175.2c-0.2-2.3-1.2-4.1-2.8-5.2c-1.6-1.1-3.7-1.7-6.2-1.7c-2.4,0-4.4,0.6-6.1,1.7c-1.7,1.1-2.9,2.9-3.6,5.2H150.2z"/>
</svg>
