<?xml version="1.0" encoding="utf-8"?>
<!-- Generator: Adobe Illustrator 24.1.0, SVG Export Plug-In . SVG Version: 6.00 Build 0)  -->
<svg version="1.1" id="Capa_1" xmlns="http://www.w3.org/2000/svg" xmlns:xlink="http://www.w3.org/1999/xlink" x="0px" y="0px"
	 viewBox="0 0 100 100" style="enable-background:new 0 0 100 100;" xml:space="preserve">
<path d="M93.4,73.7H6.6c-1,0-2,0.4-2.8,1.1c-0.9,0.9-1.2,1.7-1.2,2.8v7.9c0,1,0.4,2,1.1,2.8s1.7,1.1,2.8,1.1h87c1,0,2-0.4,2.8-1.1
	c0.8-0.8,1.1-1.7,1.1-2.8v-7.9c0-1-0.4-2-1.1-2.8C95.4,74.1,94.6,73.7,93.4,73.7z"/>
<path d="M96.3,11.7c-0.8-0.8-1.7-1.1-2.8-1.1h-87c-1.1-0.1-2,0.3-2.8,1.1c-0.8,0.8-1.1,1.7-1.1,2.8v7.9c0,1,0.4,2,1.1,2.8
	c0.9,0.9,1.7,1.2,2.8,1.2h87c1,0,2-0.4,2.8-1.1c0.8-0.8,1.1-1.7,1.1-2.8v-7.9C97.4,13.4,97,12.4,96.3,11.7z"/>
<path d="M93.4,42.1H6.6c-1,0-2,0.4-2.8,1.1C3,44,2.6,45,2.6,46v7.9c0,1,0.4,2,1.1,2.8c0.8,0.8,1.7,1.1,2.8,1.1h87c1,0,2-0.4,2.8-1.1
	s1.1-1.7,1.1-2.8V46c0-1-0.4-2-1.1-2.8C95.4,42.5,94.6,42.1,93.4,42.1z"/>
</svg>
