<?xml version="1.0" encoding="utf-8"?>
<!-- Generator: Adobe Illustrator 24.1.0, SVG Export Plug-In . SVG Version: 6.00 Build 0)  -->
<svg version="1.1" id="Capa_1" xmlns="http://www.w3.org/2000/svg" xmlns:xlink="http://www.w3.org/1999/xlink" x="0px" y="0px"
	 viewBox="0 0 100 100" style="enable-background:new 0 0 100 100;" xml:space="preserve">
<path d="M61.6,50l26.6-26.6c0.8-0.8,1.2-1.8,1.2-2.9c0-1.1-0.4-2.1-1.2-2.9l-5.9-5.9c-0.8-0.8-1.8-1.2-2.9-1.2
	c-1.1,0-2.1,0.4-2.9,1.2L50,38.3L23.4,11.8c-0.8-0.8-1.8-1.2-2.9-1.2c-1.2-0.1-2.2,0.4-3,1.1l-5.9,5.9c-0.8,0.8-1.2,1.8-1.2,2.9
	c0,1.1,0.4,2.1,1.2,2.9L38.3,50L11.8,76.5c-0.8,0.8-1.2,1.8-1.2,2.9c-0.1,1.2,0.4,2.2,1.1,3l5.9,5.9c0.8,0.8,1.8,1.2,2.9,1.2
	c1.1,0,2.1-0.4,2.9-1.2L50,61.6l26.6,26.6c0.8,0.8,1.8,1.2,2.9,1.2c1.1,0,2.1-0.4,2.9-1.2l5.9-5.9c0.8-0.8,1.2-1.8,1.2-2.9
	c0-1.1-0.4-2.1-1.2-2.9L61.6,50z"/>
</svg>
